<?xml version="1.0" encoding="utf-8"?>
<!-- Generator: Adobe Illustrator 15.1.0, SVG Export Plug-In . SVG Version: 6.00 Build 0)  -->
<!DOCTYPE svg PUBLIC "-//W3C//DTD SVG 1.1//EN" "http://www.w3.org/Graphics/SVG/1.1/DTD/svg11.dtd">
<svg version="1.1" id="Ebene_1" xmlns="http://www.w3.org/2000/svg" xmlns:xlink="http://www.w3.org/1999/xlink" x="0px" y="0px"
	 width="501px" height="279px" viewBox="0 0 501 279" enable-background="new 0 0 501 279" xml:space="preserve">
<g>
	<path fill="#E3000F" d="M80.596,160.396c-7,10.6-48.099,45.299-68.498,36.198c-18.799-7.2,0.9-155.095,9.9-178.095
		c3.6-6.3,10.198-11.3,14.198-13c5.5-1.699,7.5,2.801,5.5,7.1c-8.3,12.201-19.698,91.297-19.698,143.896
		c0,8.4,1.3,17.9,3.698,19.299c13.399,2.603,38.399-16.897,52.1-31.298C84.096,143.496,81.296,156.495,80.596,160.396"/>
	<path fill="#E3000F" d="M221.692,91.198c0-2.2-4-2.2-5.3-2.8c-10.8-2.4-26.999,0.4-42.397,5.699c1.198-9,2.6-17.299,3.898-24.299
		c2.101-14.398,6.101-17.898,5-19.898c-0.5,0-2.2-1.4-3.2-1.4c-11.698,1.4-15.1,16.399-18.299,34.199
		c-0.601,3.9-1.101,10.4-1.7,17.2c-3.8,1.8-7.399,3.7-10.699,5.8c-3.699,2.7-6.699,10.6-4.801,15.699c3,1.5,5.5-2.6,7-3.9
		c2.601-1.199,5-2.1,7.301-3c-0.101,1.5-0.301,2.9-0.4,4.301c-2.3,34.798,0,64.099,8.9,73.097c7.698,5.5,15.999,10.201,27.099,1
		c5.4-4,22.399-28.498,21.3-38.697c1.199-6.701-3.7-12-6.7-8.3c-1.3,0.9-2.3,5.3-3.6,8.3c-4.3,11.498-10.399,20.898-14.699,25.898
		c-7.399,3.6-13.3-1.302-15-9.9c-4.398-19.799-4.5-41.698-2.898-61.498c7.6-3.101,15.898-5.601,20.698-6.7
		c8.601-1.4,13.8-1.4,15.499-1.3c5.801,7.7,9.801,4.899,12.101-0.101C223.091,96.698,223.091,93.898,221.692,91.198z"/>
	<path fill="#E3000F" d="M309.888,151.796c-0.399,10.699-8.899,29.898-20.199,35.998c-5.399,2.601-9.399,6.4-14.999,7.101
		c-12,3.5-24.198,0.899-26.6,0c-4-1.699-9.3-12.101-1.399-17.898c3.699,1.9,10.199,4.101,14.399,4.101
		c8.999,0.801,24.599-4.9,28.499-14.4c1.3-4.5,7.999-14.6,3.1-21.499c-10.399-14.398-35.499-13.5-35.799-14.2
		c-20.898-11.5-11.999-31.299-0.5-44.198c8.5-10.1,18.8-18.699,29.499-11c1.3,2.101,1.3,5.399,0,7.601
		c-7,3.899-12.199,7.399-17.399,12.799c-2.398,2.601-4,4.601-6.7,7.3c-3.898,7.5-3.6,11.9,8.4,15c17.899,3.6,28.199,4.6,33.799,15.5
		C307.189,139.996,310.388,145.996,309.888,151.796"/>
	<path fill="#E3000F" d="M234.291,82.799c-8.3,1.799-7-0.101-8.9-4.101c-1.898-8.3,12.399-37.099,24.499-26.599
		C253.29,56.999,239.891,76.598,234.291,82.799"/>
	<path fill="#E3000F" d="M153.493,162.495c-6.199,14.4-15.601,30-29.499,33.998c-9.301,2.701-23.999-0.299-30.3-9.299
		c-17.999-24.799-7.199-102.896,28.1-107.796c12.6,0,17.7,9.5,17,23.998c-1.4,27.1-16.5,47.099-36.199,62.798
		c0,1.399,0,3.102,0,4.801c3.101,9.5,12.1,16.799,20.1,12.5c11.5-5.701,16.801-19.1,21.399-28
		C146.594,149.995,154.394,153.396,153.493,162.495L153.493,162.495z M98.696,138.396c-2.6,26.599,15.999-1.9,22.199-15.5
		c7.699-14.699,5-29-0.3-29.1c-3.7,0-7.2,3.5-8.6,6.801C106.196,110.497,99.995,124.896,98.696,138.396"/>
	<path fill="#E3000F" d="M485.983,84.498c-9.4-0.8-17.3-1.8-23.898,0c-0.5,1,0.6,1.7,0.6,2.2c6.3,5.5,7.5,2.3,12.8,7.7
		c8.8,9,19.601,23.998,20.499,43.998c1.7,26.001-6.8,56.898-32.198,59.999c-23.3,2.399-37.799-24.998-37.799-50.797
		c0.8-14.4,6.199-31.101,11.601-40.2c4-7.7,7.898-9.301,11.999-12.5c-1.5-0.4-1.899-1.7-3-1.9c-2.801-1.4-4.999,1-7.199-1.4
		c-1.3-4.799,0-12.799,4.6-15.6c4-2.4,16.999-5,27.299-6.1c5.2-1.5,12.101-1.801,15.601-1.801c5,0,8.1,3.101,10.1,7.9
		C497.781,80.598,491.081,84.998,485.983,84.498L485.983,84.498z M473.183,176.095c6.2-5.899,8.8-17.198,8.8-26.198
		c0.6-10.2-0.4-18.399-3.9-27.1c-4.398-10.398-11.1-22.299-21.398-18.199c-18.999,20.6-18.399,55.699-8.499,70.398
		C454.282,183.995,463.883,186.294,473.183,176.095"/>
	<path fill="#E3000F" d="M420.985,66.899c-2.601-4.5-6.8-2.2-11.1-0.8c-3.3,1.199-5.5,11.5-6.8,18.199c-4.7-2.4-13.2,0-18.101,2.5
		c-18.499,8.5-33.799,39.198-33.799,63.598c-0.6,22,17.699,39.698,38.698,21c4.399-3.802,8.899-11.302,13.2-19.302
		c2.6,28.4,6.3,62.101-0.4,86.3c-6.199,20.498-31.198,25.397-50.898,20.998c-10.398-2.199-16.398-10-22.299-13.398
		c-6.2-13.801-3.6-27-7.3-27.199c-22.299-3.701-21.399,43.398,25.799,55.099c38.6,8.899,63.998-11.101,71.198-46.699
		c0.699-3.299-1-51.498-1-87.597C418.185,111.598,418.384,85.898,420.985,66.899z M404.685,109.197c0,10.199-3.5,23-6.199,28.799
		c-5,14.2-13.399,28.198-25.8,24.099c-6.1-5.299-5-11.6-4.3-19.198c0.3-12,4.3-23.299,13.3-32.799
		c4.899-5.201,12.899-13,20.399-12.9C405.385,99.799,405.385,103.896,404.685,109.197z"/>
	<path fill="#FFFFFF" d="M114.895,217.395l-0.399,10.198h0.801c0.8-8,4.3-8.1,8.898-8.1v32.1c0,3.699-0.899,5.699-3.898,5.699v1
		h12.1v-1c-3,0-3.899-1.9-3.899-5.699v-32.1c4.6,0,8.1,0.1,8.898,8.1h0.801l-0.399-10.198H114.895"/>
	<path fill="#FFFFFF" d="M166.093,216.794c-8,0-13.699,8.398-13.699,20.101c0,12.498,4.8,22.299,13.699,22.299
		c9,0,13.8-9.801,13.8-22.299C179.893,225.093,174.193,216.794,166.093,216.794z M166.093,256.893
		c-7.399,0-9.199-11.199-9.199-19.998c0-8.9,2.3-18,9.199-18c7,0,9.3,9.198,9.3,18C175.393,245.593,173.593,256.893,166.093,256.893
		z"/>
	<path fill="#FFFFFF" d="M190.393,217.395v0.899c2.699,0,3.699,1.398,3.699,5.398v19.1c0,10.4,3.4,16.4,10.399,16.4
		c7.199,0,10.699-6.301,10.699-16.4v-19.1c0-3.601,1-5.398,3.601-5.398v-0.899h-9.199v0.899c2.6,0,3.5,1.799,3.5,5.398v18.5
		c0,7.399-1.5,13.899-7.4,13.899c-5.8,0-7.6-5.399-7.6-13.301v-19.1c0-4,1-5.398,3.7-5.398v-0.899L190.393,217.395"/>
	<path fill="#FFFFFF" d="M236.691,224.493v26.699c0,4.299-0.3,6.199-3.6,6.199v0.899h11.3v-0.899c-3.399,0-3.601-1.898-3.601-6.199
		v-11.9h2.5l9.8,19h6.6v-0.9c-1.8,0-3.699-3-5.199-5.799l-7-12.801c3.601-0.5,7.399-4.898,7.399-10.6c0-8.8-5.699-10.8-10.699-10.8
		h-11.2v0.9C236.391,218.294,236.691,220.093,236.691,224.493L236.691,224.493z M240.79,237.093v-15.6c0-2.199,0.899-2.1,2.101-2.1
		h0.8c4,0,6.801,2.399,6.801,8.799C250.49,236.693,244.99,237.093,240.79,237.093"/>
	<path fill="#FFFFFF" d="M290.189,216.493h-0.899c0,1.701-0.801,2.5-1.699,2.1c-0.602-0.198-3-1.799-5.801-1.799
		c-4,0-7.199,3.898-7.199,9.799c0,7.101,3.5,9.802,7,13c2.6,2.199,6.398,4.8,6.398,9.9c0,4.5-2.1,7.299-5.199,7.299
		c-4.601,0-7-5.299-8.399-11l-0.899-0.1l1.2,13.199h0.899c0-1.199,0.399-1.9,1.199-1.9c1.7,0,2.7,2.201,6.2,2.201
		c4.399,0,8.999-4.9,8.999-11.9c0-6.6-4.8-10.299-7.999-13.299c-2.601-2.199-5.8-5-5.8-9.801c0-3.199,1.8-5.498,3.899-5.498
		c4.398,0,7.699,4.897,7.898,10.699h1L290.189,216.493"/>
</g>
</svg>
